<svg width="514" height="660" viewBox="0 0 514 660" fill="none" xmlns="http://www.w3.org/2000/svg">
<g clip-path="url(#clip0)">
<rect x="201" y="254" width="313" height="406" rx="30" fill="#FAEDC2"/>
<g clip-path="url(#clip1)">
<path fill-rule="evenodd" clip-rule="evenodd" d="M538.393 606.166C479.457 628.124 520.366 821.454 532.127 842.268H594.478C594.565 842.103 594.695 841.973 594.773 841.808C601.706 827.71 600.025 732.315 581.235 667.23L565.738 667.585L576.312 652.179C567.151 626.902 554.774 608.506 538.393 606.166Z" fill="#AADAF1"/>
<path fill-rule="evenodd" clip-rule="evenodd" d="M383.331 697.394C452.962 783.708 520.626 829.695 520.626 829.695L556.646 793.301L452.642 672.317C452.642 672.317 461.17 578.923 443.108 561.792C425.046 544.661 339.545 643.124 383.331 697.394Z" fill="#3B4161"/>
<path fill-rule="evenodd" clip-rule="evenodd" d="M353.993 556.203L282.576 848.013L321.292 867.076C321.292 867.076 386.13 696.371 395.716 685.973C415.442 664.613 447.458 587.796 444.659 558.066C441.86 528.335 353.993 556.203 353.993 556.203Z" fill="#3B4161"/>
<path fill-rule="evenodd" clip-rule="evenodd" d="M478.409 576.592C480.064 582.112 485.429 593.593 480.324 614.138C489.997 629.086 485.481 639.614 463.328 642.257C459.601 637.708 455.857 634.718 451.705 628.159C450.353 622.249 450.475 613.177 450.353 610.716C450.119 605.742 460.225 583.741 458.414 574.902C456.602 566.064 476.745 571.064 478.409 576.592Z" fill="white"/>
<path d="M481.901 635.29C479.591 632.846 477.522 630.185 475.722 627.344" stroke="#545C63" stroke-width="2" stroke-linecap="round" stroke-linejoin="round"/>
<path d="M472.324 640.481C468.684 636.963 463.362 629.536 460.632 625.083" stroke="#545C63" stroke-width="2" stroke-linecap="round" stroke-linejoin="round"/>
<path fill-rule="evenodd" clip-rule="evenodd" d="M294.225 554.704C289.614 558.438 284.83 562.875 278.685 565.197C269.498 567.416 252.684 585.847 252.684 589.815C252.684 593.576 256.038 594.841 258.127 595.014C259.929 595.127 263.769 590.959 264.739 589.772C263.067 593.585 262.139 598.749 263.951 600.369C265.762 601.99 268.475 602.553 270.286 600.456C273.285 596.99 272.549 593.056 272.826 590.751C274.299 587.935 278.312 581.67 280.011 580.907C281.198 580.968 282.984 581.384 283.322 583.282C283.66 585.179 279.248 589.417 278.754 591.184C278.754 593.429 281.198 596.279 283.322 595.716C285.731 595.075 293.185 587.839 294.832 585.864C297.05 583.204 298.056 577.398 299.243 575.466C300.43 573.533 305.041 569.4 305.899 568.533C306.757 567.667 298.827 550.978 294.225 554.704Z" fill="white"/>
<path d="M282.281 581.575C276.821 577.043 268.301 586.323 264.427 590.066" stroke="#545C63" stroke-width="2" stroke-linecap="round" stroke-linejoin="round"/>
<path fill-rule="evenodd" clip-rule="evenodd" d="M365.806 406.182C347.952 423.244 339.207 465.972 334.457 493.475C318.796 508.882 287.256 542.997 287.282 551.186C287.308 559.374 302.701 573.048 306.618 572.953C310.536 572.857 347.007 532.954 352.675 528.292C358.343 523.63 370.061 402.101 365.806 406.182Z" fill="#73C0D8"/>
<path fill-rule="evenodd" clip-rule="evenodd" d="M359.202 335.993C356.801 333.836 352.728 333.004 352.728 321.133C352.728 308.49 367.808 297 387.014 297C417.176 297 425.938 323.446 426.978 332.796C428.018 342.146 426.38 364.268 428.478 373.254C432.69 391.642 450.379 405.835 450.379 436.562C450.379 445.903 409.852 437.81 402.598 436.727C395.343 435.644 386.876 387.543 386.876 387.543C386.876 387.543 361.603 338.151 359.202 335.993Z" fill="black"/>
<path fill-rule="evenodd" clip-rule="evenodd" d="M405.267 364.268C403.82 370.108 403.612 395.09 404.687 403.426C399.772 406.953 381.485 406.546 377.671 402.724C378.824 392.43 378.824 383.271 377.671 378.817C376.519 374.363 406.715 358.428 405.267 364.268Z" fill="white"/>
<path fill-rule="evenodd" clip-rule="evenodd" d="M351.341 345.941C351.341 325.942 365.815 309.729 383.678 309.729C401.54 309.729 416.014 325.942 416.014 345.941C416.014 365.941 401.54 382.145 383.678 382.145C365.815 382.145 351.341 365.932 351.341 345.941Z" fill="white"/>
<path fill-rule="evenodd" clip-rule="evenodd" d="M390.013 380.238C389.536 374.051 384.449 360.611 381.797 359.008C379.145 357.405 358.326 354.944 351.341 344.546C347.787 347.484 344.875 352.943 345.161 354.078C345.75 356.426 351.323 360.403 351.323 360.403C351.323 360.403 352.58 375.464 363.457 382.179C371.318 387.049 386.876 383.072 390.013 380.238Z" fill="white"/>
<path d="M381.112 361.019C384.744 354.953 394.468 347.016 399.642 344.797" stroke="white" stroke-width="2" stroke-linecap="round" stroke-linejoin="round"/>
<path d="M385.888 370.056C385.888 370.056 406.472 373.202 409.809 364.268" stroke="white" stroke-width="2" stroke-linecap="round" stroke-linejoin="round"/>
<path fill-rule="evenodd" clip-rule="evenodd" d="M365.945 312.008C370.183 315.838 372.055 325.405 375.929 330.205C382.213 338.004 394.295 339.33 398.013 349.615C401.731 359.901 421.189 351.591 421.189 351.591L418.692 327.138L404.279 312.069L381.866 305.665C381.866 305.665 361.741 308.169 365.945 312.008Z" fill="black"/>
<path fill-rule="evenodd" clip-rule="evenodd" d="M392.457 354.944C392.457 352.5 393.182 350.111 394.54 348.079C395.898 346.047 397.828 344.464 400.087 343.528C402.345 342.593 404.83 342.348 407.227 342.825C409.625 343.302 411.827 344.479 413.556 346.207C415.284 347.935 416.461 350.137 416.938 352.534C417.415 354.931 417.17 357.415 416.235 359.673C415.299 361.931 413.715 363.861 411.683 365.219C409.65 366.576 407.261 367.301 404.816 367.301C401.539 367.299 398.397 365.996 396.079 363.679C393.762 361.362 392.459 358.221 392.457 354.944Z" fill="white"/>
<path fill-rule="evenodd" clip-rule="evenodd" d="M365.364 343.428C365.364 340.924 366.464 338.896 367.817 338.896C369.169 338.896 370.278 340.924 370.278 343.428C370.278 345.933 369.177 347.96 367.817 347.96C366.456 347.96 365.364 345.933 365.364 343.428Z" fill="#3B4161"/>
<path fill-rule="evenodd" clip-rule="evenodd" d="M391.495 389.883C444.564 389.883 481.537 490.486 485.386 505.745C489.234 521.005 486.252 576.644 484.874 580.873C479.613 581.904 460.606 578.42 456.654 576.046C453.187 570.258 451.913 526.386 450.501 522.408C449.505 519.061 447.749 515.988 445.37 513.431C446.912 525.233 445.24 554.21 444.217 558.438C443.194 562.667 360.823 562.468 354.574 559.851C350.656 558.213 347.891 556.506 347.337 552.555C346.47 546.03 349.122 541.715 348.403 536.264C347.683 530.814 344.624 529.973 343.696 521.1C342.734 511.811 349.001 499.437 346.947 490.269C336.095 441.77 362.114 389.883 391.495 389.883Z" fill="#73C0D8"/>
<path fill-rule="evenodd" clip-rule="evenodd" d="M380.081 389.553H402.875C404.219 389.553 405.311 391.096 405.311 393.019V402.43C405.311 404.327 404.219 405.896 402.875 405.896H380.081C378.729 405.896 377.637 404.353 377.637 402.43V392.993C377.637 391.096 378.729 389.553 380.081 389.553Z" fill="#73C0D8"/>
<path d="M291.166 852.241L376.623 569.842" stroke="#737999" stroke-width="2" stroke-linecap="round" stroke-linejoin="round"/>
<path d="M387.014 702.68C391.062 693.737 394.138 687.671 395.681 685.964C413.267 666.901 440.629 603.792 444.373 569.253" stroke="#737999" stroke-width="2" stroke-linecap="round" stroke-linejoin="round"/>
<path d="M348.55 578.455C348.55 578.455 378.72 583.914 397.371 581.367" stroke="#737999" stroke-width="2" stroke-linecap="round" stroke-linejoin="round"/>
<path d="M352.086 561.289C349.486 559.912 347.753 558.204 347.337 555.146C346.47 548.629 349.122 544.305 348.403 538.864C347.683 533.422 344.624 532.573 343.696 523.7C342.734 514.41 349.001 502.036 346.947 492.869C343.149 475.355 343.678 457.179 348.489 439.916" stroke="#545C63" stroke-width="2" stroke-linecap="round" stroke-linejoin="round"/>
<path d="M315.597 565.691C312.425 563.88 296.166 549.071 292.274 541.117" stroke="#545C63" stroke-width="2" stroke-linecap="round" stroke-linejoin="round"/>
<path d="M311.342 562.355L302.926 571.375" stroke="#545C63" stroke-width="2" stroke-linecap="round" stroke-linejoin="round"/>
<path d="M305.934 558.187L297.527 567.216" stroke="#545C63" stroke-width="2" stroke-linecap="round" stroke-linejoin="round"/>
<path d="M300.682 553.334L292.734 561.861" stroke="#545C63" stroke-width="2" stroke-linecap="round" stroke-linejoin="round"/>
<path d="M296.478 547.832L288.73 556.142" stroke="#545C63" stroke-width="2" stroke-linecap="round" stroke-linejoin="round"/>
<path d="M486.235 569.781L454.167 566.315" stroke="#545C63" stroke-width="2" stroke-linecap="round" stroke-linejoin="round"/>
<path d="M480.939 569.209L480.073 583.567" stroke="#545C63" stroke-width="2" stroke-linecap="round" stroke-linejoin="round"/>
<path d="M472.922 568.334L471.692 582.562" stroke="#545C63" stroke-width="2" stroke-linecap="round" stroke-linejoin="round"/>
<path d="M465.035 567.476L464.108 581.063" stroke="#545C63" stroke-width="2" stroke-linecap="round" stroke-linejoin="round"/>
<path d="M487.968 532.642C483.202 532.638 478.585 530.98 474.905 527.952C471.225 524.924 468.711 520.712 467.79 516.037C466.869 511.362 467.6 506.512 469.858 502.315C472.115 498.118 475.759 494.835 480.168 493.025" stroke="#545C63" stroke-width="2" stroke-linecap="round" stroke-linejoin="round"/>
<path d="M445.378 516.031C442.535 511.369 409.445 459.17 407.729 457.107" stroke="#545C63" stroke-width="2" stroke-linecap="round" stroke-linejoin="round"/>
<path d="M400.223 457.359L407.764 456.908" stroke="#545C63" stroke-width="2" stroke-linecap="round" stroke-linejoin="round"/>
<path d="M401.324 465.729L407.677 456.917" stroke="#545C63" stroke-width="2" stroke-linecap="round" stroke-linejoin="round"/>
<path d="M406.663 470.304L407.642 457.047" stroke="#545C63" stroke-width="2" stroke-linecap="round" stroke-linejoin="round"/>
<path d="M363.292 538.76L386.564 527.4" stroke="#545C63" stroke-width="2" stroke-linecap="round" stroke-linejoin="round"/>
<path d="M386.165 524.341L355.475 530.502" stroke="#545C63" stroke-width="2" stroke-linecap="round" stroke-linejoin="round"/>
<path d="M359.297 525.84L384.96 508.943" stroke="#545C63" stroke-width="2" stroke-linecap="round" stroke-linejoin="round"/>
<path d="M391.981 405.844H380.081C378.729 405.844 377.637 404.301 377.637 402.378V392.993C377.637 391.096 378.729 389.527 380.081 389.527H402.875C403.26 389.55 403.633 389.672 403.956 389.881C404.28 390.091 404.543 390.381 404.721 390.723" stroke="#545C63" stroke-width="2" stroke-linecap="round" stroke-linejoin="round"/>
<path d="M383.634 389.553L383.79 405.844" stroke="#545C63" stroke-width="2" stroke-linecap="round" stroke-linejoin="round"/>
<path d="M390.342 389.779L390.42 397.699L390.498 406.069" stroke="#545C63" stroke-width="2" stroke-linecap="round" stroke-linejoin="round"/>
<path d="M397.848 389.779L397.926 397.699L398.004 406.069" stroke="#545C63" stroke-width="2" stroke-linecap="round" stroke-linejoin="round"/>
<path fill-rule="evenodd" clip-rule="evenodd" d="M201.556 372.275C196.053 369.952 196.746 356.903 202.596 351.903C208.447 346.903 223.137 342.579 228.918 326.999C231.016 322.762 237.282 328.931 238.92 339.46C239.83 364.511 213.63 377.37 201.556 372.275Z" fill="#AADAF1"/>
<path d="M227.731 342.12C226.856 347.648 215.268 372.569 191.867 378.912" stroke="#72A5BD" stroke-width="2" stroke-linecap="round" stroke-linejoin="round"/>
<path d="M351.341 344.546C347.787 347.484 344.875 352.943 345.161 354.078C345.75 356.426 351.323 360.403 351.323 360.403C351.323 360.403 352.58 375.464 363.457 382.179C367.279 384.536 372.913 384.779 378.061 384.129" stroke="#545C63" stroke-width="2" stroke-linecap="round" stroke-linejoin="round"/>
</g>
</g>
<g clip-path="url(#clip2)">
<rect width="313" height="406" rx="30" fill="#A8DEEF"/>
<g clip-path="url(#clip3)">
<path fill-rule="evenodd" clip-rule="evenodd" d="M220.71 362.6C226.03 366.9 231.55 372.02 238.64 374.7C249.24 377.27 268.64 398.53 268.64 403.11C268.64 407.45 264.77 408.91 262.36 409.11C260.28 409.24 255.85 404.43 254.73 403.06C256.66 407.46 257.78 413.42 255.64 415.29C253.5 417.16 250.42 417.81 248.32 415.39C244.87 411.39 245.72 406.85 245.4 404.19C243.7 400.94 239.07 393.71 237.11 392.83C235.74 392.9 233.68 393.38 233.29 395.57C232.9 397.76 237.99 402.65 238.56 404.69C238.56 407.28 235.73 410.57 233.29 409.92C230.51 409.18 221.91 400.83 220.01 398.55C217.45 395.48 216.29 388.79 214.92 386.55C213.55 384.31 208.23 379.55 207.24 378.55C206.25 377.55 215.4 358.29 220.71 362.6Z" fill="white"/>
<path fill-rule="evenodd" clip-rule="evenodd" d="M182.46 348.88L239.12 670.61L179.76 684.61L101.81 480.07L121.17 337.92L182.46 348.88Z" fill="#FFF3AC"/>
<path d="M205.57 678.53L114 390.57" stroke="#FF3274" stroke-width="2" stroke-linecap="round" stroke-linejoin="round"/>
<path fill-rule="evenodd" clip-rule="evenodd" d="M15.5501 300.64L123.06 312.05C129.47 312.73 134.06 318.77 133.36 325.55L115.9 490C115.18 496.77 109.41 501.71 103 501L-4.50987 489.63C-10.9199 488.95 -15.5099 482.91 -14.8099 476.13L2.64014 311.68C3.36014 304.9 9.14014 300 15.5501 300.64Z" fill="#FFF3AC"/>
<path fill-rule="evenodd" clip-rule="evenodd" d="M57.4399 116.9C57.4399 106.69 63.1899 98.41 70.2899 98.41C77.3899 98.41 83.1499 106.69 83.1499 116.9C83.1499 127.11 77.3899 135.39 70.2899 135.39C63.1899 135.39 57.4399 127.11 57.4399 116.9Z" fill="white"/>
<path fill-rule="evenodd" clip-rule="evenodd" d="M64.6802 126.6C64.6802 118.477 67.0891 110.536 71.6024 103.782C76.1157 97.0275 82.5305 91.7634 90.0357 88.6552C97.5408 85.547 105.799 84.7343 113.766 86.3198C121.733 87.9053 129.051 91.8178 134.795 97.5626C140.538 103.307 144.449 110.626 146.032 118.594C147.616 126.561 146.801 134.819 143.691 142.324C140.581 149.828 135.315 156.242 128.56 160.753C121.805 165.265 113.863 167.672 105.74 167.67C100.347 167.67 95.0072 166.608 90.0249 164.543C85.0426 162.479 80.5157 159.454 76.7028 155.64C72.8899 151.826 69.8657 147.299 67.8028 142.316C65.74 137.333 64.6789 131.993 64.6802 126.6Z" fill="white"/>
<path fill-rule="evenodd" clip-rule="evenodd" d="M50.7802 388.68C48.8702 395.05 42.6802 408.3 48.5702 432.01C37.4102 449.26 42.6202 461.41 68.1802 464.46C72.4802 459.21 76.7902 455.77 81.5902 448.19C83.1502 441.37 83.0102 430.9 83.1502 428.06C83.4202 422.32 75.0102 399.61 77.1002 389.41C79.1902 379.21 52.6902 382.3 50.7802 388.68Z" fill="white"/>
<path fill-rule="evenodd" clip-rule="evenodd" d="M101.74 181.45C42.66 181.45 20.17 305.6 26.62 385.04C38.87 392.77 87.7601 395.78 101.74 392.11C104.74 378.16 105.74 319.78 106.41 310.28C139.04 313.48 133.41 318.53 129.47 362.2C146.47 362.79 169.37 358.2 186.47 351.02C188.87 321.08 171.27 181.45 101.74 181.45Z" fill="#3B4161"/>
<path d="M19.0801 308.17L26.8801 233.52C28.1002 221.843 33.9091 211.128 43.0289 203.733C52.1488 196.339 63.8326 192.87 75.5101 194.09L83.8801 194.96C95.5575 196.18 106.272 201.989 113.667 211.109C121.061 220.229 124.53 231.913 123.31 243.59L115.31 320.34" stroke="#FFF3AC" stroke-width="6.77" stroke-linecap="round" stroke-linejoin="round"/>
<path fill-rule="evenodd" clip-rule="evenodd" d="M77.5699 150.63C80.6499 163.86 81.4199 182.49 80.9099 189.81C88.7399 194.43 109.04 197.64 118.8 184.54C114.18 173.37 113.15 167.97 113.54 161.54C113.93 155.11 74.4899 137.4 77.5699 150.63Z" fill="white"/>
<path fill-rule="evenodd" clip-rule="evenodd" d="M90.6599 164.81C89.7899 157.71 94.8999 141 97.8199 138.68C125.27 139.68 142.31 120.13 145.08 114.78C147.642 118.182 149.508 122.056 150.57 126.18C151.28 128.9 150.66 130.81 146.01 134.71C144.83 150.74 130.28 176.19 90.6599 164.81Z" fill="white"/>
<path d="M100 140.37C100 140.37 75.0002 119.91 67.7402 118.91" stroke="white" stroke-width="3.05" stroke-linecap="round" stroke-linejoin="round"/>
<path fill-rule="evenodd" clip-rule="evenodd" d="M120.39 118.94C120.39 115.38 121.55 112.49 122.98 112.49C124.41 112.49 125.57 115.38 125.57 118.94C125.57 122.5 124.41 125.39 122.98 125.39C121.55 125.39 120.39 122.5 120.39 118.94Z" fill="#3B4161"/>
<path d="M103.94 369.91C94.4301 371.28 42.6901 369.04 25.5801 362" stroke="#737999" stroke-width="2" stroke-linecap="round" stroke-linejoin="round"/>
<path d="M106.41 310.28C105.74 290.71 123.55 227.17 88.3501 201.04" stroke="#737999" stroke-width="2" stroke-linecap="round" stroke-linejoin="round"/>
<path d="M106.42 310.17L88.3501 317.91" stroke="#737999" stroke-width="2" stroke-linecap="round" stroke-linejoin="round"/>
<path d="M89.1401 308.45L106.47 309.67" stroke="#737999" stroke-width="2" stroke-linecap="round" stroke-linejoin="round"/>
<path d="M91.71 296.26L106.49 309.54" stroke="#737999" stroke-width="2" stroke-linecap="round" stroke-linejoin="round"/>
<path d="M91.09 163.31C87.95 162.12 75.33 157.72 68.77 144.5" stroke="white" stroke-width="3.05" stroke-linecap="round" stroke-linejoin="round"/>
<path fill-rule="evenodd" clip-rule="evenodd" d="M56.7002 134.42C56.6982 131.802 57.4727 129.243 58.9257 127.066C60.3787 124.889 62.4448 123.192 64.8627 122.189C67.2805 121.186 69.9415 120.923 72.5088 121.434C75.0761 121.944 77.4344 123.204 79.2852 125.055C81.1361 126.906 82.3963 129.264 82.9065 131.831C83.4166 134.399 83.1538 137.06 82.1512 139.477C81.1486 141.895 79.4514 143.961 77.2742 145.414C75.097 146.867 72.5377 147.642 69.9202 147.64C66.4149 147.637 63.0538 146.244 60.5752 143.765C58.0965 141.286 56.7028 137.925 56.7002 134.42Z" fill="white"/>
<path d="M82.5699 138.29C81.7395 140.997 80.0625 143.366 77.7855 145.049C75.5084 146.732 72.7515 147.64 69.9199 147.64" stroke="#545C63" stroke-width="2" stroke-linecap="round" stroke-linejoin="round"/>
<path d="M59.4902 126.29C61.3991 123.838 64.1115 122.139 67.1502 121.49" stroke="#545C63" stroke-width="2" stroke-linecap="round" stroke-linejoin="round"/>
<path fill-rule="evenodd" clip-rule="evenodd" d="M90.9998 68.14C85.3375 69.4441 79.9876 71.8508 75.2556 75.2228C70.5236 78.5947 66.5022 82.8658 63.4211 87.7921C60.3399 92.7184 58.2594 98.2034 57.2983 103.934C56.3372 109.664 56.5144 115.528 57.8198 121.19L144.05 101.32C142.746 95.6577 140.339 90.3078 136.967 85.5758C133.595 80.8438 129.324 76.8224 124.398 73.7413C119.471 70.6601 113.986 68.5796 108.256 67.6185C102.525 66.6574 96.6618 66.8346 90.9998 68.14Z" fill="#FFF3AC"/>
<path fill-rule="evenodd" clip-rule="evenodd" d="M111.27 94.93L173.58 80.57C178.74 79.37 183.58 81.38 184.46 85.03C185.3 88.69 181.8 92.62 176.63 93.82L114.32 108.18C109.15 109.37 104.32 107.37 103.44 103.71C102.59 100.05 106.1 96.12 111.27 94.93Z" fill="#FFF3AC"/>
<path d="M234.49 393.6C240.79 388.37 250.62 399.08 255.09 403.4" stroke="#CB5D66" stroke-width="2" stroke-linecap="round" stroke-linejoin="round"/>
<path d="M72.2102 139.8C71.489 140.119 70.7088 140.282 69.9202 140.28C69.0417 140.281 68.1747 140.08 67.387 139.691C66.5993 139.301 65.9123 138.736 65.3794 138.037C64.8466 137.339 64.4824 136.526 64.3154 135.664C64.1484 134.801 64.183 133.912 64.4165 133.065C64.65 132.218 65.0762 131.436 65.6616 130.781C66.2471 130.126 66.9761 129.616 67.7916 129.289C68.6071 128.962 69.4871 128.828 70.3629 128.898C71.2387 128.967 72.0865 129.239 72.8402 129.69" stroke="#545C63" stroke-width="2" stroke-linecap="round" stroke-linejoin="round"/>
<path d="M145.08 114.78C147.643 118.182 149.508 122.056 150.57 126.18C151.28 128.9 150.66 130.81 146.01 134.71C145.09 147.14 136.14 165.23 113.7 167.43" stroke="#545C63" stroke-width="2" stroke-linecap="round" stroke-linejoin="round"/>
</g>
</g>
<path d="M202 284C202 267.431 215.431 254 232 254H313V376C313 392.569 299.569 406 283 406H202V284Z" fill="#5BB1A1"/>
<defs>
<clipPath id="clip0">
<rect x="201" y="254" width="313" height="406" rx="30" fill="white"/>
</clipPath>
<clipPath id="clip1">
<rect width="464" height="619" fill="white" transform="translate(191 297)"/>
</clipPath>
<clipPath id="clip2">
<rect width="313" height="406" rx="30" fill="white"/>
</clipPath>
<clipPath id="clip3">
<rect width="586.72" height="679.28" fill="white" transform="translate(-92 66)"/>
</clipPath>
</defs>
</svg>
