<svg width="156" height="68" viewBox="0 0 156 68" fill="none" xmlns="http://www.w3.org/2000/svg">
<path d="M77.054 23.592H83.45C84.334 23.592 85.1833 23.6787 85.998 23.852C86.83 24.008 87.5667 24.2853 88.208 24.684C88.8493 25.0827 89.3607 25.62 89.742 26.296C90.1233 26.972 90.314 27.83 90.314 28.87C90.314 30.2047 89.9413 31.3227 89.196 32.224C88.468 33.1253 87.4193 33.6713 86.05 33.862L90.938 42H86.986L82.722 34.2H80.33V42H77.054V23.592ZM82.878 31.392C83.346 31.392 83.814 31.3747 84.282 31.34C84.75 31.288 85.1747 31.184 85.556 31.028C85.9547 30.8547 86.2753 30.6033 86.518 30.274C86.7607 29.9273 86.882 29.4507 86.882 28.844C86.882 28.3067 86.7693 27.8733 86.544 27.544C86.3187 27.2147 86.024 26.972 85.66 26.816C85.296 26.6427 84.8887 26.53 84.438 26.478C84.0047 26.426 83.58 26.4 83.164 26.4H80.33V31.392H82.878ZM95.641 36.852C95.745 37.788 96.109 38.516 96.733 39.036C97.357 39.556 98.111 39.816 98.995 39.816C99.775 39.816 100.425 39.66 100.945 39.348C101.482 39.0187 101.95 38.6113 102.349 38.126L104.585 39.816C103.857 40.7173 103.042 41.3587 102.141 41.74C101.24 42.1213 100.295 42.312 99.307 42.312C98.371 42.312 97.487 42.156 96.655 41.844C95.823 41.532 95.1036 41.09 94.497 40.518C93.8903 39.946 93.405 39.2613 93.041 38.464C92.6943 37.6493 92.521 36.748 92.521 35.76C92.521 34.772 92.6943 33.8793 93.041 33.082C93.405 32.2673 93.8903 31.574 94.497 31.002C95.1036 30.43 95.823 29.988 96.655 29.676C97.487 29.364 98.371 29.208 99.307 29.208C100.174 29.208 100.962 29.364 101.673 29.676C102.401 29.9707 103.016 30.404 103.519 30.976C104.039 31.548 104.438 32.2587 104.715 33.108C105.01 33.94 105.157 34.902 105.157 35.994V36.852H95.641ZM102.037 34.512C102.02 33.5933 101.734 32.874 101.179 32.354C100.624 31.8167 99.853 31.548 98.865 31.548C97.929 31.548 97.1836 31.8167 96.629 32.354C96.0916 32.8913 95.7623 33.6107 95.641 34.512H102.037ZM115.875 40.284H115.797C115.346 40.9947 114.774 41.5147 114.081 41.844C113.387 42.156 112.625 42.312 111.793 42.312C111.221 42.312 110.657 42.234 110.103 42.078C109.565 41.922 109.08 41.688 108.647 41.376C108.231 41.064 107.893 40.674 107.633 40.206C107.373 39.738 107.243 39.192 107.243 38.568C107.243 37.892 107.364 37.32 107.607 36.852C107.849 36.3667 108.17 35.968 108.569 35.656C108.985 35.3267 109.461 35.0667 109.999 34.876C110.536 34.6853 111.091 34.5467 111.663 34.46C112.252 34.356 112.841 34.2953 113.431 34.278C114.02 34.2433 114.575 34.226 115.095 34.226H115.875V33.888C115.875 33.108 115.606 32.5273 115.069 32.146C114.531 31.7473 113.847 31.548 113.015 31.548C112.356 31.548 111.741 31.6693 111.169 31.912C110.597 32.1373 110.103 32.4493 109.687 32.848L108.049 31.21C108.742 30.4993 109.548 29.988 110.467 29.676C111.403 29.364 112.365 29.208 113.353 29.208C114.237 29.208 114.982 29.312 115.589 29.52C116.195 29.7107 116.698 29.962 117.097 30.274C117.495 30.586 117.799 30.95 118.007 31.366C118.232 31.7647 118.388 32.172 118.475 32.588C118.579 33.004 118.639 33.4113 118.657 33.81C118.674 34.1913 118.683 34.5293 118.683 34.824V42H115.875V40.284ZM115.693 36.41H115.043C114.609 36.41 114.124 36.4273 113.587 36.462C113.049 36.4967 112.538 36.5833 112.053 36.722C111.585 36.8433 111.186 37.034 110.857 37.294C110.527 37.5367 110.363 37.8833 110.363 38.334C110.363 38.6287 110.423 38.88 110.545 39.088C110.683 39.2787 110.857 39.4433 111.065 39.582C111.273 39.7207 111.507 39.8247 111.767 39.894C112.027 39.946 112.287 39.972 112.547 39.972C113.621 39.972 114.41 39.7207 114.913 39.218C115.433 38.698 115.693 37.996 115.693 37.112V36.41ZM130.567 33.264C130.203 32.8827 129.822 32.5793 129.423 32.354C129.025 32.1287 128.617 32.016 128.201 32.016C127.629 32.016 127.118 32.12 126.667 32.328C126.217 32.536 125.827 32.8133 125.497 33.16C125.185 33.5067 124.943 33.9053 124.769 34.356C124.613 34.8067 124.535 35.2747 124.535 35.76C124.535 36.2453 124.613 36.7133 124.769 37.164C124.943 37.6147 125.185 38.0133 125.497 38.36C125.827 38.7067 126.217 38.984 126.667 39.192C127.118 39.4 127.629 39.504 128.201 39.504C128.687 39.504 129.137 39.4087 129.553 39.218C129.969 39.01 130.325 38.7153 130.619 38.334L132.699 40.57C132.387 40.882 132.023 41.1507 131.607 41.376C131.209 41.6013 130.801 41.7833 130.385 41.922C129.969 42.0607 129.571 42.156 129.189 42.208C128.808 42.2773 128.479 42.312 128.201 42.312C127.265 42.312 126.381 42.156 125.549 41.844C124.717 41.532 123.998 41.09 123.391 40.518C122.785 39.946 122.299 39.2613 121.935 38.464C121.589 37.6493 121.415 36.748 121.415 35.76C121.415 34.772 121.589 33.8793 121.935 33.082C122.299 32.2673 122.785 31.574 123.391 31.002C123.998 30.43 124.717 29.988 125.549 29.676C126.381 29.364 127.265 29.208 128.201 29.208C128.999 29.208 129.796 29.364 130.593 29.676C131.408 29.9707 132.119 30.4473 132.725 31.106L130.567 33.264ZM137.702 31.262H137.754C137.997 30.742 138.422 30.274 139.028 29.858C139.652 29.4247 140.45 29.208 141.42 29.208C142.252 29.208 142.954 29.3467 143.526 29.624C144.116 29.9013 144.592 30.2653 144.956 30.716C145.32 31.1667 145.58 31.6867 145.736 32.276C145.892 32.8653 145.97 33.4807 145.97 34.122V42H142.85V35.682C142.85 35.3353 142.833 34.954 142.798 34.538C142.764 34.1047 142.668 33.706 142.512 33.342C142.374 32.9607 142.148 32.6487 141.836 32.406C141.524 32.146 141.1 32.016 140.562 32.016C140.042 32.016 139.6 32.1027 139.236 32.276C138.89 32.4493 138.595 32.6833 138.352 32.978C138.127 33.2727 137.962 33.6107 137.858 33.992C137.754 34.3733 137.702 34.772 137.702 35.188V42H134.582V22.344H137.702V31.262ZM149.512 40.18C149.512 39.6253 149.711 39.1487 150.11 38.75C150.526 38.3513 151.02 38.152 151.592 38.152C152.147 38.152 152.632 38.3427 153.048 38.724C153.464 39.1053 153.672 39.5733 153.672 40.128C153.672 40.6827 153.464 41.1593 153.048 41.558C152.649 41.9567 152.164 42.156 151.592 42.156C151.315 42.156 151.046 42.104 150.786 42C150.543 41.896 150.327 41.7573 150.136 41.584C149.945 41.4107 149.789 41.2027 149.668 40.96C149.564 40.7173 149.512 40.4573 149.512 40.18Z" fill="black"/>
<path d="M19.2873 56.2245C19.0781 56.3072 18.9234 56.4875 18.8736 56.7066C18.8238 56.9261 18.8855 57.1558 19.0383 57.3202C23.1887 61.7853 28.8571 58.7297 30.4263 57.7405C33.7154 60.0053 37.5676 61.2 41.5991 61.2C52.4074 61.2 61.2003 52.4931 61.2003 41.7908C61.2003 31.0884 52.4074 22.3812 41.5991 22.3812C40.1535 22.3812 38.719 22.5469 37.3207 22.8553C37.5809 18.7301 36.1326 14.5248 32.9544 11.3216C27.0562 5.37822 17.3741 5.29222 11.371 11.13C8.46041 13.9602 6.83678 17.7437 6.80092 21.7832C6.7644 25.822 8.31897 29.6328 11.1771 32.5138C14.192 35.5521 18.2463 37.1342 22.3941 37.0375C21.6465 40.3384 22.0821 43.6545 22.0996 43.782C22.3181 45.9023 23.1362 48.6555 24.1881 50.8124C25.1085 53.8896 19.3457 56.2016 19.2873 56.2245ZM12.1426 31.5556C9.54217 28.9345 8.12772 25.4684 8.16092 21.7955C8.19346 18.1216 9.67034 14.6801 12.3193 12.1048C17.7905 6.7847 26.6146 6.8634 31.9888 12.2798C37.294 17.6262 37.3425 26.0442 32.099 31.4433C32.0054 31.54 31.9098 31.6356 31.8128 31.7295C31.7949 31.7468 31.7783 31.7651 31.7624 31.7843C30.9535 32.7618 30.9442 33.6387 31.0784 34.2022C31.2776 35.0359 31.8865 35.6847 32.4729 36.1369C29.0344 37.1954 27.1285 35.282 27.0429 35.1933C26.9121 35.0548 26.7328 34.9798 26.5481 34.9798C26.4791 34.9798 26.4094 34.9904 26.3416 35.012C21.2954 36.6204 15.8541 35.2956 12.1426 31.5556ZM25.4697 50.3538C25.4597 50.322 25.4471 50.2908 25.4325 50.2609C24.4344 48.2295 23.6575 45.6317 23.4503 43.6209C23.4451 43.5856 22.9938 40.11 23.8211 36.9326C24.6772 36.8327 25.5328 36.669 26.3795 36.4221C26.9778 36.9102 28.3743 37.8217 30.4621 37.8217C31.5545 37.8217 32.8362 37.5716 34.2918 36.881C34.5322 36.7671 34.6829 36.5231 34.6796 36.2571C34.6756 35.9912 34.5169 35.7514 34.2739 35.6442C33.821 35.4443 32.6031 34.7387 32.4012 33.8844C32.3115 33.5059 32.4384 33.1111 32.7883 32.6782C32.8846 32.5839 32.9803 32.4882 33.0746 32.3916C35.3344 30.0646 36.6868 27.2263 37.1612 24.2828C38.6044 23.9258 40.0963 23.7412 41.5991 23.7412C51.657 23.7412 59.8403 31.8381 59.8403 41.7908C59.8403 51.7431 51.657 59.84 41.5991 59.84C37.6971 59.84 33.975 58.6384 30.8367 56.3653C30.5956 56.192 30.2709 56.1923 30.0325 56.3699C29.9774 56.4111 24.7153 60.2378 20.7442 57.0566C22.6362 56.1189 26.5462 53.7236 25.4697 50.3538Z" fill="black"/>
<path d="M15.8861 17.3071C16.7939 17.3071 17.5742 17.9855 17.701 18.885C17.7488 19.225 18.0397 19.4703 18.3737 19.4703C18.4049 19.4703 18.4368 19.4683 18.4693 19.4637C18.8412 19.4112 19.1002 19.0676 19.0477 18.6957C18.8273 17.1288 17.4679 15.9471 15.8861 15.9471C14.3043 15.9471 12.945 17.1288 12.7245 18.6957C12.6721 19.0676 12.931 19.4112 13.3029 19.4637C13.6841 19.5171 14.0188 19.2568 14.0712 18.885C14.1981 17.9855 14.9784 17.3071 15.8861 17.3071Z" fill="black"/>
<path d="M25.5749 19.4637C25.9541 19.5171 26.2908 19.2568 26.3432 18.885C26.4701 17.9855 27.2497 17.3071 28.1574 17.3071C29.0652 17.3071 29.8455 17.9855 29.9723 18.885C30.0201 19.225 30.311 19.4703 30.645 19.4703C30.6762 19.4703 30.7081 19.4683 30.7406 19.4637C31.1125 19.4112 31.3715 19.0676 31.319 18.6957C31.0986 17.1288 29.7392 15.9471 28.1574 15.9471C26.5756 15.9471 25.217 17.1288 24.9965 18.6957C24.944 19.0676 25.203 19.4112 25.5749 19.4637Z" fill="black"/>
<path d="M29.7375 23.8564C29.7375 23.4809 29.4333 23.1764 29.0575 23.1764C28.6816 23.1764 28.3775 23.4809 28.3775 23.8564C28.3775 27.3606 25.5266 30.2118 22.0224 30.2118C18.5181 30.2118 15.6666 27.3606 15.6666 23.8564C15.6666 23.4809 15.3625 23.1764 14.9866 23.1764C14.6108 23.1764 14.3066 23.4809 14.3066 23.8564C14.3066 28.1107 17.7677 31.5718 22.0224 31.5718C26.2764 31.5718 29.7375 28.1107 29.7375 23.8564Z" fill="black"/>
<path d="M35.4837 49.8621H47.816C48.1919 49.8621 48.496 49.5576 48.496 49.1821V39.8391C48.496 39.6438 48.4123 39.4582 48.2656 39.3291L42.0991 33.8891C41.8428 33.6626 41.4563 33.6626 41.2 33.8891L35.0341 39.3291C34.8874 39.4582 34.8037 39.6438 34.8037 39.8391V49.1821C34.8037 49.5576 35.1079 49.8621 35.4837 49.8621ZM36.1637 40.1459L41.6495 35.3058L47.136 40.1459V48.5021H36.1637V40.1459Z" fill="black"/>
</svg>
